<?xml version="1.0" standalone="no"?>
<!DOCTYPE svg PUBLIC "-//W3C//DTD SVG 20010904//EN"
 "http://www.w3.org/TR/2001/REC-SVG-20010904/DTD/svg10.dtd">
<svg version="1.0" xmlns="http://www.w3.org/2000/svg"
 width="1228.000000pt" height="1228.000000pt" viewBox="0 0 1228.000000 1228.000000"
 preserveAspectRatio="xMidYMid meet">
<metadata>
Created by potrace 1.11, written by Peter Selinger 2001-2013
</metadata>
<g transform="translate(0.000000,1228.000000) scale(0.100000,-0.100000)"
fill="#000000" stroke="none">
<path d="M4068 9424 c-3 -2 -27 -6 -54 -9 -90 -7 -201 -27 -294 -52 -30 -8
-62 -16 -70 -18 -8 -2 -28 -8 -45 -15 -16 -6 -30 -10 -30 -9 0 5 -81 -24 -89
-32 -6 -5 -19 -9 -31 -9 -12 0 -26 -5 -33 -12 -6 -6 -17 -13 -24 -14 -20 -3
-213 -98 -216 -106 -2 -4 -8 -8 -13 -8 -20 0 -259 -161 -305 -205 -6 -5 -32
-28 -59 -50 -26 -22 -84 -78 -129 -124 -112 -116 -116 -120 -116 -131 0 -5 -4
-10 -8 -10 -5 0 -21 -18 -38 -40 -16 -22 -39 -53 -52 -68 -12 -15 -25 -35 -28
-44 -3 -10 -9 -18 -13 -18 -5 0 -14 -13 -21 -30 -7 -16 -16 -30 -21 -30 -5 0
-9 -6 -9 -14 0 -8 -6 -21 -13 -28 -26 -26 -137 -259 -178 -375 -23 -65 -44
-125 -47 -133 -7 -21 -15 -51 -27 -107 -3 -13 -7 -33 -10 -45 -33 -138 -48
-285 -49 -468 0 -157 13 -329 30 -395 3 -11 7 -33 10 -50 3 -16 14 -64 25
-105 11 -41 22 -84 24 -94 22 -93 128 -341 203 -471 100 -174 198 -301 360
-464 l113 -114 -65 -61 c-35 -34 -119 -113 -187 -176 -154 -145 -167 -157
-335 -317 -76 -72 -157 -148 -179 -168 -22 -21 -95 -90 -163 -154 -68 -64
-145 -136 -171 -161 -26 -25 -110 -104 -187 -176 -76 -73 -169 -160 -206 -194
-37 -34 -94 -88 -126 -119 -83 -78 -206 -195 -357 -336 -70 -66 -149 -140
-175 -165 -26 -25 -98 -93 -161 -152 -63 -58 -139 -130 -170 -160 -31 -29
-117 -111 -192 -182 -76 -71 -137 -135 -137 -143 0 -20 11671 -19 11746 1 76
20 171 69 244 126 118 92 205 210 259 353 l32 87 -3 204 c-2 147 -7 209 -15
218 -7 6 -13 19 -13 28 0 21 -54 124 -96 183 -19 26 -34 52 -34 57 0 6 -3 10
-7 10 -5 0 -21 20 -38 45 -16 24 -33 45 -37 45 -5 0 -8 5 -8 11 0 5 -21 38
-46 72 -25 34 -108 150 -185 257 -77 107 -146 204 -155 215 -8 11 -44 61 -79
110 -35 50 -72 101 -83 115 -10 14 -41 57 -67 95 -27 39 -51 72 -54 75 -3 3
-26 34 -51 70 -24 36 -48 67 -52 68 -4 2 -8 10 -8 18 0 8 -4 14 -8 14 -4 0
-15 12 -24 27 -9 16 -24 37 -33 48 -15 20 -304 421 -374 521 -59 84 -271 379
-338 470 -35 47 -63 89 -63 95 0 5 -4 9 -8 9 -4 0 -16 14 -26 30 -26 45 -133
152 -191 191 -27 19 -53 38 -56 42 -3 5 -9 8 -13 8 -3 -1 -19 5 -34 12 -168
86 -433 104 -592 40 -8 -3 -19 -7 -25 -8 -55 -13 -190 -95 -250 -152 -8 -7
-16 -13 -20 -13 -3 0 -16 -10 -29 -22 -13 -13 -36 -32 -51 -43 -16 -11 -33
-24 -39 -30 -6 -5 -34 -28 -61 -50 -28 -21 -52 -42 -55 -46 -3 -3 -12 -10 -21
-15 -9 -5 -34 -23 -55 -41 -21 -18 -66 -54 -99 -80 -33 -26 -61 -51 -63 -55
-2 -5 -8 -8 -12 -8 -5 0 -22 -11 -37 -26 -15 -14 -80 -66 -144 -117 -64 -51
-134 -105 -155 -122 -21 -16 -76 -60 -123 -98 -47 -37 -95 -75 -106 -85 -11
-10 -40 -33 -65 -52 -25 -19 -47 -37 -50 -40 -3 -3 -48 -39 -100 -80 -52 -40
-97 -76 -100 -80 -3 -3 -30 -24 -60 -48 -30 -23 -62 -48 -70 -55 -8 -7 -49
-40 -90 -73 -41 -32 -84 -66 -95 -75 -11 -10 -78 -63 -150 -120 -71 -56 -131
-106 -133 -111 -2 -4 -8 -8 -13 -8 -5 0 -17 -8 -27 -17 -10 -10 -30 -27 -46
-38 -15 -11 -41 -33 -59 -48 -59 -52 -212 -165 -257 -189 -59 -32 -151 -64
-220 -78 -92 -17 -237 -14 -305 8 -11 3 -22 6 -25 7 -16 3 -86 29 -108 41 -15
8 -30 14 -34 14 -4 0 -33 17 -65 39 -67 44 -143 116 -193 181 -19 25 -37 47
-40 50 -3 3 -30 38 -60 78 -30 39 -58 72 -62 72 -5 0 -8 6 -8 14 0 8 -3 16 -8
18 -4 2 -23 23 -42 48 -19 25 -39 48 -45 52 -5 4 -6 8 -1 8 6 0 3 6 -6 13 -9
6 -23 24 -32 38 -16 25 -16 25 51 75 57 41 274 249 333 319 38 44 150 198 150
205 0 5 6 15 13 22 20 19 127 210 127 225 0 7 4 13 9 13 5 0 12 12 17 28 10
36 9 33 24 67 7 17 13 33 12 38 -1 4 2 7 6 7 5 0 9 6 10 13 1 6 15 53 32 102
18 50 34 97 36 105 25 103 34 144 39 172 3 18 8 41 11 51 6 19 10 50 21 172 9
92 8 341 -1 430 -7 75 -22 167 -41 255 -3 14 -7 34 -10 45 -3 16 -34 124 -49
170 -11 36 -56 156 -73 195 -49 115 -166 322 -205 364 -10 11 -18 25 -18 32 0
7 -3 14 -8 16 -4 2 -32 34 -62 73 -118 149 -258 286 -425 413 -50 38 -147 102
-155 102 -5 0 -10 5 -10 12 0 6 -3 8 -7 5 -3 -4 -13 -1 -22 7 -16 14 -254 136
-266 136 -4 0 -21 6 -38 14 -49 22 -222 78 -282 92 -73 16 -178 36 -210 40
-22 3 -51 8 -65 11 -33 7 -446 14 -452 7z"/>
</g>
</svg>
